<?xml version="1.0" encoding="utf-8"?>
<!-- Generator: Adobe Illustrator 24.0.2, SVG Export Plug-In . SVG Version: 6.00 Build 0)  -->
<svg version="1.1" id="Layer_1" xmlns="http://www.w3.org/2000/svg" xmlns:xlink="http://www.w3.org/1999/xlink" x="0px" y="0px"
	 viewBox="0 0 540 540" style="enable-background:new 0 0 540 540;" xml:space="preserve">
<style type="text/css">
	.st0{fill:none;stroke:#000000;stroke-width:8;stroke-miterlimit:10;}
</style>
<g>
	<g>
		<path class="st0" d="M80.88,103.69"/>
		<path class="st0" d="M477.57,431.88l-39.37,39.37L300.98,334.05l39.37-39.37L477.57,431.88z"/>
		<path class="st0" d="M283.84,277.38l38.8,38.95 M148.94,141.96l93.45,93.81"/>
		<path class="st0" d="M85.99,98.38l18.7-18.7l65.14,47.02l-36.82,36.82L85.99,98.38z"/>
	</g>
	<path class="st0" d="M434.09,164.5c15.03-15.03,16.86-54.29,16.86-54.29l-50.84,26.08l-16.02-15.92l25.39-51.63
		c0,0-39.26,1.83-54.29,16.86c-15.01,15.01-20.7,35.65-16.86,54.23l-251.6,251.6l-24.3,46.85l18.98,18.98l46.85-24.3l251.6-251.6
		C398.45,185.2,419.08,179.51,434.09,164.5z"/>
</g>
</svg>
