<?xml version="1.0" encoding="utf-8"?>
<!-- Generator: Adobe Illustrator 24.0.2, SVG Export Plug-In . SVG Version: 6.00 Build 0)  -->
<svg version="1.1" id="medicare" xmlns="http://www.w3.org/2000/svg" xmlns:xlink="http://www.w3.org/1999/xlink" x="0px" y="0px"
	 viewBox="0 0 540 540" style="enable-background:new 0 0 540 540;" xml:space="preserve">
<style type="text/css">
	.st0{fill:#29ABE2;}
	.st1{fill:none;stroke:#C1272D;stroke-width:10;stroke-linejoin:round;stroke-miterlimit:10;}
</style>
<g id="bottom">
	<path d="M412.35,318.83c-1.85,2.46-4.58,4.23-7.64,4.54c-5.18,0.53-9.78-2.63-11.31-7.32l-23.98-73.55l-16.14,32.27
		c-1.81,3.62-5.51,5.91-9.56,5.91h-27.26l-36.99,223.98c-0.86,5.19-5.35,8.94-10.53,8.94c-0.27,0-0.55-0.01-0.83-0.03
		c-5.53-0.43-9.81-5.01-9.86-10.55l-3.36-338.97l-33.14,148.48c-0.82,3.67-3.34,6.86-6.89,8.12c-5.2,1.84-10.74-0.5-13.14-5.18
		L166,245.73l-35.19,63.67c-1.87,3.38-5.43,5.48-9.29,5.48h-0.04c-3.86,0-7.42-2.08-9.31-5.45L96,280.68H12.5v68.38
		c0,3.54,2.87,6.41,6.41,6.41h165.61v165.61c0,3.54,2.87,6.41,6.41,6.41h158.13c3.54,0,6.41-2.87,6.41-6.41V355.48h165.61
		c3.54,0,6.41-2.87,6.41-6.41v-68.38h-86.55L412.35,318.83z"/>
</g>
<g id="top">
	<path class="st0" d="M355.48,184.52V18.91c0-3.54-2.87-6.41-6.41-6.41H190.93c-3.54,0-6.41,2.87-6.41,6.41v165.61H18.91
		c-3.54,0-6.41,2.87-6.41,6.41v68.38h96l12.9,22.94l35.61-64.43c1.91-3.46,5.63-5.54,9.52-5.52c3.95,0.06,7.54,2.3,9.34,5.81
		l31.39,61.27l46.98-210.45c1.18-5.3,6.14-8.86,11.55-8.3c5.4,0.57,9.51,5.09,9.57,10.52l3.06,308.85l18.45-111.75
		c0.85-5.16,5.31-8.94,10.54-8.94h29.73l24.83-49.65c3.21-6.42,12.27-8.56,18.73-1.56l26.67,81.78l22.93-30.57h97.23v-68.38
		c0-3.54-2.87-6.41-6.41-6.41H355.48z"/>
</g>
<polyline id="line" class="st1" points="12.5,270 102.25,270 121.48,304.19 166.36,222.99 211.23,310.6 264.66,71.27 268.93,502.93 
	307.4,270 343.72,270 371.5,214.44 403.56,312.74 435.61,270 527.5,270 "/>
</svg>
